<svg xmlns="http://www.w3.org/2000/svg" xmlns:xlink="http://www.w3.org/1999/xlink" xmlns:lucid="lucid" width="791" height="602.46"><g transform="translate(-240 -16)" lucid:page-tab-id="0_0"><path d="M0 0h1760v1360H0z" fill="#fff"/><path d="M260 41c0-2.76 2.24-5 5-5h730c2.76 0 5 2.24 5 5v70c0 2.76-2.24 5-5 5H265c-2.76 0-5-2.24-5-5z" fill="none"/><use xlink:href="#a" transform="matrix(1,0,0,1,260,36) translate(6.518518518518533 50.66666666666667)"/><use xlink:href="#b" transform="matrix(1,0,0,1,260,36) translate(139.5555555555556 50.66666666666667)"/><use xlink:href="#c" transform="matrix(1,0,0,1,260,36) translate(246.22222222222229 50.66666666666667)"/><use xlink:href="#d" transform="matrix(1,0,0,1,260,36) translate(443.5555555555556 50.66666666666667)"/><use xlink:href="#e" transform="matrix(1,0,0,1,260,36) translate(606.2222222222222 50.66666666666667)"/><g class="lucid-layer" lucid:layer-id="Knl2PCcCl1Sa" display="block"><path d="M260 300.46c0-1.1.9-2 2-2h672c1.1 0 2 .9 2 2v296c0 1.1-.9 2-2 2H262c-1.1 0-2-.9-2-2z" fill="#d1bcd2"/><use xlink:href="#f" transform="matrix(1,0,0,1,276,314.46153846153845) translate(0 20.616319444444443)"/><use xlink:href="#g" transform="matrix(1,0,0,1,276,314.46153846153845) translate(106.94444444444446 20.616319444444443)"/><use xlink:href="#h" transform="matrix(1,0,0,1,276,314.46153846153845) translate(187.97743055555557 20.616319444444443)"/><use xlink:href="#i" transform="matrix(1,0,0,1,276,314.46153846153845) translate(251.4865451388889 20.616319444444443)"/><path d="M862.68 305c0-2.76 2.23-5 5-5H931c2.77 0 5 2.24 5 5v30c0 2.76-2.23 5-5 5H867.7c-2.77 0-5-2.24-5-5z" stroke="#0c7cba" stroke-width="3" fill="#fff"/><use xlink:href="#j" transform="matrix(1,0,0,1,867.675778966046,305.00000000000006) translate(14.5 14.4)"/><path d="M330.74 340h-62.9c-4.3 0-7.84 5.7-7.84 12.66v245.8h78.5v-245.8c0-6.97-3.52-12.66-7.76-12.66zm-3.92 233.13h-55.04v-12.66h55.04v12.66zm0-25.07h-55.04V535.4h55.04v12.66zm0-157.66h-55.04v-12.66h55.04v12.66z" stroke="#000" stroke-opacity="0" fill="#2a3282"/><path d="M780 305c0-2.76 2.24-5 5-5h63.33c2.77 0 5 2.24 5 5v30c0 2.76-2.23 5-5 5H785c-2.76 0-5-2.24-5-5z" stroke="#0c7cba" stroke-width="3" fill="#fff"/><use xlink:href="#k" transform="matrix(1,0,0,1,785,305.00000000000006) translate(14.5 14.4)"/><path d="M697.32 305c0-2.76 2.24-5 5-5h63.34c2.76 0 5 2.24 5 5v30c0 2.76-2.24 5-5 5h-63.34c-2.76 0-5-2.24-5-5z" stroke="#0c7cba" stroke-width="3" fill="#fff"/><use xlink:href="#l" transform="matrix(1,0,0,1,702.324221033954,305.00000000000006) translate(14.5 14.4)"/><path d="M362.54 342c0-1.1.9-2 2-2h330.78c1.1 0 2 .9 2 2v240c0 1.1-.9 2-2 2H364.54c-1.1 0-2-.9-2-2z" fill="#fff"/><use xlink:href="#m" transform="matrix(1,0,0,1,378.53689160279146,356) translate(151.5 16.69921875)"/><use xlink:href="#n" transform="matrix(1,0,0,1,378.53689160279146,356) translate(151.5 37.79296875)"/><use xlink:href="#o" transform="matrix(1,0,0,1,378.53689160279146,356) translate(59.84765625 58.88671875)"/><use xlink:href="#p" transform="matrix(1,0,0,1,378.53689160279146,356) translate(207.71484375 58.88671875)"/><use xlink:href="#n" transform="matrix(1,0,0,1,378.53689160279146,356) translate(151.5 79.98046875)"/><use xlink:href="#q" transform="matrix(1,0,0,1,378.53689160279146,356) translate(21.3251953125 101.07421875)"/><use xlink:href="#r" transform="matrix(1,0,0,1,378.53689160279146,356) translate(246.2373046875 101.07421875)"/><use xlink:href="#s" transform="matrix(1,0,0,1,378.53689160279146,356) translate(63.3896484375 122.16796875)"/><use xlink:href="#t" transform="matrix(1,0,0,1,378.53689160279146,356) translate(132.5947265625 122.16796875)"/><use xlink:href="#u" transform="matrix(1,0,0,1,378.53689160279146,356) translate(164.75390625 122.16796875)"/><use xlink:href="#v" transform="matrix(1,0,0,1,378.53689160279146,356) translate(38.16943359375 143.26171875)"/><use xlink:href="#w" transform="matrix(1,0,0,1,378.53689160279146,356) translate(179.86669921875 143.26171875)"/><path d="M900.34 297.5h-2v-28.33h2zM981.5 221h-81.16v4.97h-2V219h83.16z"/><path d="M900.34 298.5h-2v-1.03h2zM996.76 220l-14.26 4.64v-9.28z"/><path d="M1000 220l-18.5 6v-12zm-16.5 3.26l10.03-3.26-10.03-3.26z"/><g><use xlink:href="#x" transform="matrix(1,0,0,1,856.8428581740069,225.96666666666667) translate(25.23 14.4)"/><use xlink:href="#y" transform="matrix(1,0,0,1,856.8428581740069,225.96666666666667) translate(0.005000000000002558 36)"/></g><path d="M838.9 297.5h-2V221h-36.2v59h-2v-61h40.2z"/><path d="M838.9 298.5h-2v-1.03h2zM799.7 295.26L795.08 281h9.28z"/><path d="M799.7 298.5l-6-18.5h12.02zm-3.25-16.5l3.26 10.03 3.27-10.03z"/><g><use xlink:href="#z" transform="matrix(1,0,0,1,771.3078415840781,172.8) translate(19.555000000000003 14.4)"/><use xlink:href="#A" transform="matrix(1,0,0,1,771.3078415840781,172.8) translate(0.005000000000002558 36)"/></g><path d="M753.6 297.5V220h-39.62v60" stroke="#000" stroke-width="2" fill="none"/><path d="M754.6 298.5h-2v-1.03h2z"/><path d="M713.98 295.26L709.34 281h9.27z" stroke="#000" stroke-width="2"/><g><use xlink:href="#z" transform="matrix(1,0,0,1,705.8315543672873,172.8) translate(0.004999999999999005 14.4)"/><use xlink:href="#B" transform="matrix(1,0,0,1,705.8315543672873,172.8) translate(7.979999999999997 36)"/></g></g><defs><path d="M194 0L95-120 63-95V0H30v-248h33v124l119-124h40L117-140 236 0h-42" id="C"/><path d="M100-194c62-1 85 37 85 99 1 63-27 99-86 99S16-35 15-95c0-66 28-99 85-99zM99-20c44 1 53-31 53-75 0-43-8-75-51-75s-53 32-53 75 10 74 51 75" id="D"/><path d="M24 0v-261h32V0H24" id="E"/><path d="M141-36C126-15 110 5 73 4 37 3 15-17 15-53c-1-64 63-63 125-63 3-35-9-54-41-54-24 1-41 7-42 31l-33-3c5-37 33-52 76-52 45 0 72 20 72 64v82c-1 20 7 32 28 27v20c-31 9-61-2-59-35zM48-53c0 20 12 33 32 33 41-3 63-29 60-74-43 2-92-5-92 41" id="F"/><g id="a"><use transform="matrix(0.14814814814814817,0,0,0.14814814814814817,0,0)" xlink:href="#C"/><use transform="matrix(0.14814814814814817,0,0,0.14814814814814817,35.55555555555556,0)" xlink:href="#D"/><use transform="matrix(0.14814814814814817,0,0,0.14814814814814817,65.18518518518519,0)" xlink:href="#E"/><use transform="matrix(0.14814814814814817,0,0,0.14814814814814817,76.8888888888889,0)" xlink:href="#E"/><use transform="matrix(0.14814814814814817,0,0,0.14814814814814817,88.59259259259261,0)" xlink:href="#F"/></g><path d="M205 0l-28-72H64L36 0H1l101-248h38L239 0h-34zm-38-99l-47-123c-12 45-31 82-46 123h93" id="G"/><path d="M33 0v-248h34V0H33" id="H"/><path d="M140-251c81 0 123 46 123 126C263-46 219 4 140 4 59 4 17-45 17-125s42-126 123-126zm0 227c63 0 89-41 89-101s-29-99-89-99c-61 0-89 39-89 99S79-25 140-24" id="I"/><g id="b"><use transform="matrix(0.14814814814814817,0,0,0.14814814814814817,0,0)" xlink:href="#G"/><use transform="matrix(0.14814814814814817,0,0,0.14814814814814817,35.55555555555556,0)" xlink:href="#H"/><use transform="matrix(0.14814814814814817,0,0,0.14814814814814817,50.370370370370374,0)" xlink:href="#I"/></g><path d="M137 0h-34L2-248h35l83 218 83-218h36" id="J"/><path d="M177-190C167-65 218 103 67 71c-23-6-38-20-44-43l32-5c15 47 100 32 89-28v-30C133-14 115 1 83 1 29 1 15-40 15-95c0-56 16-97 71-98 29-1 48 16 59 35 1-10 0-23 2-32h30zM94-22c36 0 50-32 50-73 0-42-14-75-50-75-39 0-46 34-46 75s6 73 46 73" id="K"/><path d="M114-163C36-179 61-72 57 0H25l-1-190h30c1 12-1 29 2 39 6-27 23-49 58-41v29" id="L"/><path d="M117-194c89-4 53 116 60 194h-32v-121c0-31-8-49-39-48C34-167 62-67 57 0H25l-1-190h30c1 10-1 24 2 32 11-22 29-35 61-36" id="M"/><path d="M59-47c-2 24 18 29 38 22v24C64 9 27 4 27-40v-127H5v-23h24l9-43h21v43h35v23H59v120" id="N"/><g id="c"><use transform="matrix(0.14814814814814817,0,0,0.14814814814814817,0,0)" xlink:href="#J"/><use transform="matrix(0.14814814814814817,0,0,0.14814814814814817,31.555555555555557,0)" xlink:href="#F"/><use transform="matrix(0.14814814814814817,0,0,0.14814814814814817,61.18518518518519,0)" xlink:href="#K"/><use transform="matrix(0.14814814814814817,0,0,0.14814814814814817,90.81481481481482,0)" xlink:href="#L"/><use transform="matrix(0.14814814814814817,0,0,0.14814814814814817,108.44444444444446,0)" xlink:href="#F"/><use transform="matrix(0.14814814814814817,0,0,0.14814814814814817,138.07407407407408,0)" xlink:href="#M"/><use transform="matrix(0.14814814814814817,0,0,0.14814814814814817,167.7037037037037,0)" xlink:href="#N"/></g><path d="M185-189c-5-48-123-54-124 2 14 75 158 14 163 119 3 78-121 87-175 55-17-10-28-26-33-46l33-7c5 56 141 63 141-1 0-78-155-14-162-118-5-82 145-84 179-34 5 7 8 16 11 25" id="O"/><path d="M24-231v-30h32v30H24zM24 0v-190h32V0H24" id="P"/><path d="M100-194c63 0 86 42 84 106H49c0 40 14 67 53 68 26 1 43-12 49-29l28 8c-11 28-37 45-77 45C44 4 14-33 15-96c1-61 26-98 85-98zm52 81c6-60-76-77-97-28-3 7-6 17-6 28h103" id="Q"/><g id="d"><use transform="matrix(0.14814814814814817,0,0,0.14814814814814817,0,0)" xlink:href="#O"/><use transform="matrix(0.14814814814814817,0,0,0.14814814814814817,35.55555555555556,0)" xlink:href="#P"/><use transform="matrix(0.14814814814814817,0,0,0.14814814814814817,47.25925925925927,0)" xlink:href="#M"/><use transform="matrix(0.14814814814814817,0,0,0.14814814814814817,76.8888888888889,0)" xlink:href="#K"/><use transform="matrix(0.14814814814814817,0,0,0.14814814814814817,106.51851851851853,0)" xlink:href="#E"/><use transform="matrix(0.14814814814814817,0,0,0.14814814814814817,118.22222222222224,0)" xlink:href="#Q"/></g><path d="M190 0L58-211 59 0H30v-248h39L202-35l-2-213h31V0h-41" id="R"/><path d="M85-194c31 0 48 13 60 33l-1-100h32l1 261h-30c-2-10 0-23-3-31C134-8 116 4 85 4 32 4 16-35 15-94c0-66 23-100 70-100zm9 24c-40 0-46 34-46 75 0 40 6 74 45 74 42 0 51-32 51-76 0-42-9-74-50-73" id="S"/><g id="e"><use transform="matrix(0.14814814814814817,0,0,0.14814814814814817,0,0)" xlink:href="#R"/><use transform="matrix(0.14814814814814817,0,0,0.14814814814814817,38.370370370370374,0)" xlink:href="#D"/><use transform="matrix(0.14814814814814817,0,0,0.14814814814814817,68,0)" xlink:href="#S"/><use transform="matrix(0.14814814814814817,0,0,0.14814814814814817,97.62962962962962,0)" xlink:href="#Q"/></g><path d="M668-361l330-1095h334L825 0H512L7-1456h333" id="T"/><path d="M952-300H426L326 0H7l542-1456h278L1372 0h-319zM507-543h364l-183-545" id="U"/><path d="M399-777c-11 316 60 556 342 556 113 0 193-24 241-72v-251H709v-221h573v581C1177-55 960 24 725 20 280 12 81-292 94-770c11-421 200-700 610-706 347-5 543 171 578 483H990c-25-157-105-241-277-241-102 0-180 38-233 115s-76 191-81 342" id="V"/><path d="M1209-1016c0 219-100 334-260 407l315 595V0H942L669-533H430V0H130v-1456h541c318-3 538 141 538 440zm-300 24c-1-144-85-221-238-221H430v437h242c144 2 238-77 237-216" id="W"/><path d="M1314 0h-300L430-958V0H130v-1456h300l585 960v-960h299V0" id="X"/><path d="M1226-1213H780V0H480v-1213H40v-243h1186v243" id="Y"/><g id="f"><use transform="matrix(0.010850694444444444,0,0,0.010850694444444444,0,0)" xlink:href="#T"/><use transform="matrix(0.010850694444444444,0,0,0.010850694444444444,13.715277777777777,0)" xlink:href="#U"/><use transform="matrix(0.010850694444444444,0,0,0.010850694444444444,28.66753472222222,0)" xlink:href="#V"/><use transform="matrix(0.010850694444444444,0,0,0.010850694444444444,43.80425347222222,0)" xlink:href="#W"/><use transform="matrix(0.010850694444444444,0,0,0.010850694444444444,57.98611111111111,0)" xlink:href="#U"/><use transform="matrix(0.010850694444444444,0,0,0.010850694444444444,72.93836805555556,0)" xlink:href="#X"/><use transform="matrix(0.010850694444444444,0,0,0.010850694444444444,88.31380208333334,0)" xlink:href="#Y"/></g><path d="M658-217c127 0 227-49 227-165 0-57-21-98-60-130-79-64-370-142-463-196-162-95-248-210-248-361 0-280 246-403 537-407 213-3 383 84 467 216 45 69 68 147 68 234H886c0-139-96-211-240-211-129 0-232 55-232 169 0 47 24 87 72 119s117 62 210 90c171 51 295 115 373 191s117 171 117 284c-2 272-237 411-528 404C331 13 78-135 69-458h301c0 161 96 241 288 241" id="Z"/><path d="M449 0H149v-1456h300V0" id="aa"/><path d="M430-241h637V0H130v-1456h300v1215" id="ab"/><path d="M1006-631H430v390h676V0H130v-1456h974v243H430v347h576v235" id="ac"/><g id="g"><use transform="matrix(0.010850694444444444,0,0,0.010850694444444444,0,0)" xlink:href="#Z"/><use transform="matrix(0.010850694444444444,0,0,0.010850694444444444,13.661024305555555,0)" xlink:href="#aa"/><use transform="matrix(0.010850694444444444,0,0,0.010850694444444444,20.13888888888889,0)" xlink:href="#X"/><use transform="matrix(0.010850694444444444,0,0,0.010850694444444444,35.82899305555556,0)" xlink:href="#V"/><use transform="matrix(0.010850694444444444,0,0,0.010850694444444444,50.96571180555556,0)" xlink:href="#ab"/><use transform="matrix(0.010850694444444444,0,0,0.010850694444444444,62.99913194444444,0)" xlink:href="#ac"/></g><path d="M1248-1138c106 220 104 603 2 820-91 195-274 338-542 338C281 20 86-300 86-759c0-291 115-515 296-629 182-114 467-115 648 0 94 60 166 141 218 250zM940-344c111-153 110-617 0-765-57-77-133-119-234-119s-177 41-233 118c-64 88-83 240-83 415 0 149 27 264 82 346s133 123 236 123c101 0 176-40 232-118" id="ad"/><path d="M130 0v-1456h448c435 14 673 299 665 762-5 285-130 500-319 606C822-31 708 0 581 0H130zm809-685c9-311-79-526-361-528H430v972h145c252-2 356-181 364-444" id="ae"/><g id="h"><use transform="matrix(0.010850694444444444,0,0,0.010850694444444444,0,0)" xlink:href="#X"/><use transform="matrix(0.010850694444444444,0,0,0.010850694444444444,15.690104166666666,0)" xlink:href="#ad"/><use transform="matrix(0.010850694444444444,0,0,0.010850694444444444,31.03298611111111,0)" xlink:href="#ae"/><use transform="matrix(0.010850694444444444,0,0,0.010850694444444444,45.475260416666664,0)" xlink:href="#ac"/></g><g id="i"><use transform="matrix(0.010850694444444444,0,0,0.010850694444444444,0,0)" xlink:href="#U"/><use transform="matrix(0.010850694444444444,0,0,0.010850694444444444,14.952256944444445,0)" xlink:href="#aa"/><use transform="matrix(0.010850694444444444,0,0,0.010850694444444444,21.43012152777778,0)" xlink:href="#ad"/></g><path d="M106-169C34-169 62-67 57 0H25v-261h32l-1 103c12-21 28-36 61-36 89 0 53 116 60 194h-32v-121c2-32-8-49-39-48" id="af"/><path d="M101-251c68 0 85 55 85 127S166 4 100 4C33 4 14-52 14-124c0-73 17-127 87-127zm-1 229c47 0 54-49 54-102s-4-102-53-102c-51 0-55 48-55 102 0 53 5 102 54 102" id="ag"/><g id="j"><use transform="matrix(0.05,0,0,0.05,0,0)" xlink:href="#Q"/><use transform="matrix(0.05,0,0,0.05,10,0)" xlink:href="#N"/><use transform="matrix(0.05,0,0,0.05,15,0)" xlink:href="#af"/><use transform="matrix(0.05,0,0,0.05,25,0)" xlink:href="#ag"/></g><path d="M27 0v-27h64v-190l-56 39v-29l58-41h29v221h61V0H27" id="ah"/><g id="k"><use transform="matrix(0.05,0,0,0.05,0,0)" xlink:href="#Q"/><use transform="matrix(0.05,0,0,0.05,10,0)" xlink:href="#N"/><use transform="matrix(0.05,0,0,0.05,15,0)" xlink:href="#af"/><use transform="matrix(0.05,0,0,0.05,25,0)" xlink:href="#ah"/></g><path d="M101-251c82-7 93 87 43 132L82-64C71-53 59-42 53-27h129V0H18c2-99 128-94 128-182 0-28-16-43-45-43s-46 15-49 41l-32-3c6-41 34-60 81-64" id="ai"/><g id="l"><use transform="matrix(0.05,0,0,0.05,0,0)" xlink:href="#Q"/><use transform="matrix(0.05,0,0,0.05,10,0)" xlink:href="#N"/><use transform="matrix(0.05,0,0,0.05,15,0)" xlink:href="#af"/><use transform="matrix(0.05,0,0,0.05,25,0)" xlink:href="#ai"/></g><path d="M589-945c-131 0-219 81-264 174V0H140v-1082h175l6 136c83-104 191-156 324-156 229 0 346 129 346 387V0H806v-716c-2-153-65-229-217-229" id="aj"/><path d="M599-131c141 0 220-65 285-146l113 88C906-50 770 20 589 20 281 21 93-214 93-545c0-223 93-397 233-485 74-48 154-72 240-72 300 2 449 218 445 537v77H278c0 197 129 357 321 357zm227-509c-3-180-88-310-260-310-170 0-264 140-282 310h542" id="ak"/><path d="M456 20C285 20 205-92 206-268v-671H9v-143h197v-262h185v262h202v143H391v671c-9 125 92 149 207 118V0c-49 13-96 20-142 20" id="al"/><path d="M1098-255l208-827h185L1176 0h-150L763-820 507 0H357L43-1082h184l213 810 252-810h149" id="am"/><path d="M584 20C278 26 81-227 91-551c10-320 175-545 491-551 308-5 503 247 494 573-9 322-175 543-492 549zm-2-970c-208 0-305 185-305 421 0 216 106 398 307 398 211 0 307-186 307-420 0-214-109-399-309-399" id="an"/><path d="M663-916c-163-27-288 18-338 148V0H140v-1082h180l3 125c61-97 147-145 258-145 36 0 63 5 82 14v172" id="ao"/><path d="M442-501L326-380V0H141v-1536h185v929c135-169 291-317 436-475h225L566-630 1036 0H819" id="ap"/><path d="M920 151H4V0h916v151" id="aq"/><path d="M341 0H156v-1082h185V0zm-91-1264c-68 0-108-42-109-105 0-62 41-107 109-107s110 44 110 107-42 105-110 105" id="ar"/><path d="M704-1390c-164-38-297 28-288 194v114h231v143H416V0H231v-939H60v-143h171v-111c-12-274 208-416 483-347" id="as"/><path d="M561-1102c238-4 403 126 403 351v498c0 99 13 178 38 237V0H808c-11-21-19-59-26-114C696-25 593 20 474 20c-199 0-368-130-365-320 4-251 214-359 490-356h180v-85c-1-135-86-212-229-212-115 0-232 67-233 171H131c20-205 206-316 430-320zM294-326c0 117 90 185 207 185 122 0 239-75 278-162v-222H634c-227 0-340 66-340 199" id="at"/><path d="M277-555c0 244 77 420 297 424 127 2 249-93 255-210h175C980-127 805 20 574 20 258 20 81-222 92-562c11-319 164-533 481-540 237-5 426 165 431 392H829c-7-133-115-242-256-240-209 4-296 166-296 395" id="au"/><g id="o"><use transform="matrix(0.0087890625,0,0,0.0087890625,0,0)" xlink:href="#aj"/><use transform="matrix(0.0087890625,0,0,0.0087890625,9.931640625,0)" xlink:href="#ak"/><use transform="matrix(0.0087890625,0,0,0.0087890625,19.4677734375,0)" xlink:href="#al"/><use transform="matrix(0.0087890625,0,0,0.0087890625,25.34765625,0)" xlink:href="#am"/><use transform="matrix(0.0087890625,0,0,0.0087890625,38.8740234375,0)" xlink:href="#an"/><use transform="matrix(0.0087890625,0,0,0.0087890625,49.1396484375,0)" xlink:href="#ao"/><use transform="matrix(0.0087890625,0,0,0.0087890625,55.23046875,0)" xlink:href="#ap"/><use transform="matrix(0.0087890625,0,0,0.0087890625,64.353515625,0)" xlink:href="#aq"/><use transform="matrix(0.0087890625,0,0,0.0087890625,72.474609375,0)" xlink:href="#ar"/><use transform="matrix(0.0087890625,0,0,0.0087890625,76.8427734375,0)" xlink:href="#aj"/><use transform="matrix(0.0087890625,0,0,0.0087890625,86.7744140625,0)" xlink:href="#al"/><use transform="matrix(0.0087890625,0,0,0.0087890625,92.654296875,0)" xlink:href="#ak"/><use transform="matrix(0.0087890625,0,0,0.0087890625,102.1904296875,0)" xlink:href="#ao"/><use transform="matrix(0.0087890625,0,0,0.0087890625,108.4130859375,0)" xlink:href="#as"/><use transform="matrix(0.0087890625,0,0,0.0087890625,114.662109375,0)" xlink:href="#at"/><use transform="matrix(0.0087890625,0,0,0.0087890625,124.453125,0)" xlink:href="#au"/><use transform="matrix(0.0087890625,0,0,0.0087890625,133.875,0)" xlink:href="#ak"/></g><path d="M589-945c-131 0-219 81-264 174V0H140v-1536h185v585c82-101 189-151 320-151 229 0 346 129 346 387V0H806v-716c-2-153-65-229-217-229" id="av"/><path d="M729 0H543v-1233l-373 137v-168l530-199h29V0" id="aw"/><g id="p"><use transform="matrix(0.0087890625,0,0,0.0087890625,0,0)" xlink:href="#ak"/><use transform="matrix(0.0087890625,0,0,0.0087890625,9.5361328125,0)" xlink:href="#al"/><use transform="matrix(0.0087890625,0,0,0.0087890625,15.416015625,0)" xlink:href="#av"/><use transform="matrix(0.0087890625,0,0,0.0087890625,25.330078125,0)" xlink:href="#aw"/></g><path d="M341 0H156v-1536h185V0" id="ax"/><path d="M503-687l240-395h216L605-547 970 0H756L506-405 256 0H41l365-547-354-535h214" id="ay"/><path d="M497-251l268-831h189L566 0H425L33-1082h189" id="az"/><path d="M632-1102c291 0 422 251 422 573 0 297-141 548-419 549-131 0-235-42-310-125v521H140v-1498h169l9 120c75-93 180-140 314-140zm-53 971c207 0 290-180 290-419 0-218-92-395-292-395-112 0-196 50-252 149v517c55 99 140 148 254 148" id="aA"/><g id="q"><use transform="matrix(0.0087890625,0,0,0.0087890625,0,0)" xlink:href="#ap"/><use transform="matrix(0.0087890625,0,0,0.0087890625,9.123046875,0)" xlink:href="#an"/><use transform="matrix(0.0087890625,0,0,0.0087890625,19.388671875,0)" xlink:href="#ax"/><use transform="matrix(0.0087890625,0,0,0.0087890625,23.7568359375,0)" xlink:href="#ax"/><use transform="matrix(0.0087890625,0,0,0.0087890625,28.125,0)" xlink:href="#at"/><use transform="matrix(0.0087890625,0,0,0.0087890625,37.916015625,0)" xlink:href="#aq"/><use transform="matrix(0.0087890625,0,0,0.0087890625,46.037109375,0)" xlink:href="#ak"/><use transform="matrix(0.0087890625,0,0,0.0087890625,55.5732421875,0)" xlink:href="#ay"/><use transform="matrix(0.0087890625,0,0,0.0087890625,64.494140625,0)" xlink:href="#al"/><use transform="matrix(0.0087890625,0,0,0.0087890625,70.3740234375,0)" xlink:href="#ak"/><use transform="matrix(0.0087890625,0,0,0.0087890625,79.91015625,0)" xlink:href="#ao"/><use transform="matrix(0.0087890625,0,0,0.0087890625,86.0009765625,0)" xlink:href="#aj"/><use transform="matrix(0.0087890625,0,0,0.0087890625,95.9326171875,0)" xlink:href="#at"/><use transform="matrix(0.0087890625,0,0,0.0087890625,105.7236328125,0)" xlink:href="#ax"/><use transform="matrix(0.0087890625,0,0,0.0087890625,110.091796875,0)" xlink:href="#aq"/><use transform="matrix(0.0087890625,0,0,0.0087890625,118.212890625,0)" xlink:href="#az"/><use transform="matrix(0.0087890625,0,0,0.0087890625,126.931640625,0)" xlink:href="#ar"/><use transform="matrix(0.0087890625,0,0,0.0087890625,131.2998046875,0)" xlink:href="#aA"/><use transform="matrix(0.0087890625,0,0,0.0087890625,141.3984375,0)" xlink:href="#aq"/><use transform="matrix(0.0087890625,0,0,0.0087890625,149.51953125,0)" xlink:href="#ar"/><use transform="matrix(0.0087890625,0,0,0.0087890625,153.8876953125,0)" xlink:href="#aj"/><use transform="matrix(0.0087890625,0,0,0.0087890625,163.8193359375,0)" xlink:href="#al"/><use transform="matrix(0.0087890625,0,0,0.0087890625,169.69921875,0)" xlink:href="#ak"/><use transform="matrix(0.0087890625,0,0,0.0087890625,179.2353515625,0)" xlink:href="#ao"/><use transform="matrix(0.0087890625,0,0,0.0087890625,185.4580078125,0)" xlink:href="#as"/><use transform="matrix(0.0087890625,0,0,0.0087890625,191.70703125,0)" xlink:href="#at"/><use transform="matrix(0.0087890625,0,0,0.0087890625,201.498046875,0)" xlink:href="#au"/><use transform="matrix(0.0087890625,0,0,0.0087890625,210.919921875,0)" xlink:href="#ak"/></g><path d="M574-1476c351 0 454 237 460 615v240c0 217-37 378-111 483S733 20 576 20c-346 0-454-246-461-616v-247c0-214 37-373 111-477s190-156 348-156zm275 905c0-337 59-752-275-753-95 0-160 38-207 107-80 118-66 409-67 625 0 157 22 273 68 348s115 113 208 113c91 0 160-35 204-106s69-182 69-334" id="aB"/><g id="r"><use transform="matrix(0.0087890625,0,0,0.0087890625,0,0)" xlink:href="#ak"/><use transform="matrix(0.0087890625,0,0,0.0087890625,9.5361328125,0)" xlink:href="#al"/><use transform="matrix(0.0087890625,0,0,0.0087890625,15.416015625,0)" xlink:href="#av"/><use transform="matrix(0.0087890625,0,0,0.0087890625,25.330078125,0)" xlink:href="#aB"/></g><path d="M992-673H361v516h733V0H169v-1456h915v158H361v468h631v157" id="aC"/><g id="s"><use transform="matrix(0.0087890625,0,0,0.0087890625,0,0)" xlink:href="#aC"/><use transform="matrix(0.0087890625,0,0,0.0087890625,10.23046875,0)" xlink:href="#ay"/><use transform="matrix(0.0087890625,0,0,0.0087890625,19.1513671875,0)" xlink:href="#al"/><use transform="matrix(0.0087890625,0,0,0.0087890625,25.03125,0)" xlink:href="#ak"/><use transform="matrix(0.0087890625,0,0,0.0087890625,34.5673828125,0)" xlink:href="#ao"/><use transform="matrix(0.0087890625,0,0,0.0087890625,40.658203125,0)" xlink:href="#aj"/><use transform="matrix(0.0087890625,0,0,0.0087890625,50.58984375,0)" xlink:href="#at"/><use transform="matrix(0.0087890625,0,0,0.0087890625,60.380859375,0)" xlink:href="#ax"/></g><path d="M651-255l416-1201h210L737 0H567L28-1456h209" id="aD"/><path d="M375 0H183v-1456h192V0" id="aE"/><path d="M1216-1011c-1 297-202 441-512 441H361V0H169v-1456h537c297-6 510 164 510 445zm-192 2c1-178-126-288-307-289H361v571h345c196 1 318-92 318-282" id="aF"/><g id="t"><use transform="matrix(0.0087890625,0,0,0.0087890625,0,0)" xlink:href="#aD"/><use transform="matrix(0.0087890625,0,0,0.0087890625,11.4521484375,0)" xlink:href="#aE"/><use transform="matrix(0.0087890625,0,0,0.0087890625,16.34765625,0)" xlink:href="#aF"/></g><path d="M569-1476c255 0 440 146 439 390 0 143-91 314-274 512L344-151h731V0H121v-133l504-560c75-85 125-155 155-207 105-184 6-424-211-424-183 0-293 113-291 297H93c-3-270 199-449 476-449" id="aG"/><path d="M258 11c-71 0-114-43-114-108 0-67 42-112 114-112s116 45 116 112c-1 65-45 108-116 108" id="aH"/><path d="M884-462c0-185-111-323-291-323-113 0-183 39-239 93l-148-38 74-726h746v171H437l-44 397c71-42 152-63 243-63 273-2 433 205 433 487 0 293-170 484-461 484-260 0-436-159-454-403h175c20 156 111 252 279 252 182 0 276-140 276-331" id="aI"/><g id="u"><use transform="matrix(0.0087890625,0,0,0.0087890625,0,0)" xlink:href="#aG"/><use transform="matrix(0.0087890625,0,0,0.0087890625,10.107421875,0)" xlink:href="#aB"/><use transform="matrix(0.0087890625,0,0,0.0087890625,20.21484375,0)" xlink:href="#aH"/><use transform="matrix(0.0087890625,0,0,0.0087890625,24.9521484375,0)" xlink:href="#aG"/><use transform="matrix(0.0087890625,0,0,0.0087890625,35.0595703125,0)" xlink:href="#aB"/><use transform="matrix(0.0087890625,0,0,0.0087890625,45.1669921875,0)" xlink:href="#aH"/><use transform="matrix(0.0087890625,0,0,0.0087890625,49.904296875,0)" xlink:href="#aB"/><use transform="matrix(0.0087890625,0,0,0.0087890625,60.01171875,0)" xlink:href="#aH"/><use transform="matrix(0.0087890625,0,0,0.0087890625,64.7490234375,0)" xlink:href="#aI"/></g><g id="v"><use transform="matrix(0.0087890625,0,0,0.0087890625,0,0)" xlink:href="#ap"/><use transform="matrix(0.0087890625,0,0,0.0087890625,9.123046875,0)" xlink:href="#an"/><use transform="matrix(0.0087890625,0,0,0.0087890625,19.388671875,0)" xlink:href="#ax"/><use transform="matrix(0.0087890625,0,0,0.0087890625,23.7568359375,0)" xlink:href="#ax"/><use transform="matrix(0.0087890625,0,0,0.0087890625,28.125,0)" xlink:href="#at"/><use transform="matrix(0.0087890625,0,0,0.0087890625,37.916015625,0)" xlink:href="#aq"/><use transform="matrix(0.0087890625,0,0,0.0087890625,46.037109375,0)" xlink:href="#ar"/><use transform="matrix(0.0087890625,0,0,0.0087890625,50.4052734375,0)" xlink:href="#aj"/><use transform="matrix(0.0087890625,0,0,0.0087890625,60.3369140625,0)" xlink:href="#al"/><use transform="matrix(0.0087890625,0,0,0.0087890625,66.216796875,0)" xlink:href="#ak"/><use transform="matrix(0.0087890625,0,0,0.0087890625,75.7529296875,0)" xlink:href="#ao"/><use transform="matrix(0.0087890625,0,0,0.0087890625,81.84375,0)" xlink:href="#aj"/><use transform="matrix(0.0087890625,0,0,0.0087890625,91.775390625,0)" xlink:href="#at"/><use transform="matrix(0.0087890625,0,0,0.0087890625,101.56640625,0)" xlink:href="#ax"/><use transform="matrix(0.0087890625,0,0,0.0087890625,105.9345703125,0)" xlink:href="#aq"/><use transform="matrix(0.0087890625,0,0,0.0087890625,114.0556640625,0)" xlink:href="#az"/><use transform="matrix(0.0087890625,0,0,0.0087890625,122.7744140625,0)" xlink:href="#ar"/><use transform="matrix(0.0087890625,0,0,0.0087890625,127.142578125,0)" xlink:href="#aA"/></g><path d="M132-554c0-555 187-908 715-903v157c-320-8-501 179-526 477 77-88 181-132 314-132 259 0 417 214 417 480 0 286-172 495-451 495-293 0-469-266-469-574zm737 88c0-181-95-335-265-335-133 0-252 96-286 200v68c-6 207 101 397 283 400 175 3 268-150 268-333" id="aJ"/><g id="w"><use transform="matrix(0.0087890625,0,0,0.0087890625,0,0)" xlink:href="#aw"/><use transform="matrix(0.0087890625,0,0,0.0087890625,10.107421875,0)" xlink:href="#aI"/><use transform="matrix(0.0087890625,0,0,0.0087890625,20.21484375,0)" xlink:href="#aG"/><use transform="matrix(0.0087890625,0,0,0.0087890625,30.322265625,0)" xlink:href="#aH"/><use transform="matrix(0.0087890625,0,0,0.0087890625,35.0595703125,0)" xlink:href="#aw"/><use transform="matrix(0.0087890625,0,0,0.0087890625,45.1669921875,0)" xlink:href="#aJ"/><use transform="matrix(0.0087890625,0,0,0.0087890625,55.2744140625,0)" xlink:href="#aH"/><use transform="matrix(0.0087890625,0,0,0.0087890625,60.01171875,0)" xlink:href="#aB"/><use transform="matrix(0.0087890625,0,0,0.0087890625,70.119140625,0)" xlink:href="#aH"/><use transform="matrix(0.0087890625,0,0,0.0087890625,74.8564453125,0)" xlink:href="#aI"/></g><path d="M127-220V0H93v-220H8v-28h204v28h-85" id="aK"/><g id="x"><use transform="matrix(0.05,0,0,0.05,0,0)" xlink:href="#R"/><use transform="matrix(0.05,0,0,0.05,12.950000000000001,0)" xlink:href="#G"/><use transform="matrix(0.05,0,0,0.05,23.6,0)" xlink:href="#aK"/></g><path d="M33 0v-38h34V0H33" id="aL"/><path d="M54-142c48-35 137-8 131 61C196 18 31 33 14-55l32-4c7 23 22 37 52 37 35-1 51-22 54-58 4-55-73-65-99-34H22l8-134h141v27H59" id="aM"/><g id="y"><use transform="matrix(0.05,0,0,0.05,0,0)" xlink:href="#ai"/><use transform="matrix(0.05,0,0,0.05,10,0)" xlink:href="#ag"/><use transform="matrix(0.05,0,0,0.05,20,0)" xlink:href="#aL"/><use transform="matrix(0.05,0,0,0.05,25,0)" xlink:href="#ai"/><use transform="matrix(0.05,0,0,0.05,35,0)" xlink:href="#ag"/><use transform="matrix(0.05,0,0,0.05,45,0)" xlink:href="#aL"/><use transform="matrix(0.05,0,0,0.05,50,0)" xlink:href="#ag"/><use transform="matrix(0.05,0,0,0.05,60,0)" xlink:href="#aL"/><use transform="matrix(0.05,0,0,0.05,65,0)" xlink:href="#ah"/><use transform="matrix(0.05,0,0,0.05,75,0)" xlink:href="#aM"/></g><path d="M30-248c87 1 191-15 191 75 0 78-77 80-158 76V0H30v-248zm33 125c57 0 124 11 124-50 0-59-68-47-124-48v98" id="aN"/><path d="M108 0H70L1-190h34L89-25l56-165h34" id="aO"/><g id="z"><use transform="matrix(0.05,0,0,0.05,0,0)" xlink:href="#aN"/><use transform="matrix(0.05,0,0,0.05,12,0)" xlink:href="#L"/><use transform="matrix(0.05,0,0,0.05,17.95,0)" xlink:href="#P"/><use transform="matrix(0.05,0,0,0.05,21.9,0)" xlink:href="#aO"/><use transform="matrix(0.05,0,0,0.05,30.899999999999995,0)" xlink:href="#F"/><use transform="matrix(0.05,0,0,0.05,40.9,0)" xlink:href="#N"/><use transform="matrix(0.05,0,0,0.05,45.9,0)" xlink:href="#Q"/></g><path d="M110-160c48 1 74 30 74 79 0 53-28 85-80 85-65 0-83-55-86-122-5-90 50-162 133-122 14 7 22 21 27 39l-31 6c-5-40-67-38-82-6-9 19-15 44-15 74 11-20 30-34 60-33zm-7 138c34 0 49-23 49-58s-16-56-50-56c-29 0-50 16-49 49 1 36 15 65 50 65" id="aP"/><g id="A"><use transform="matrix(0.05,0,0,0.05,0,0)" xlink:href="#ah"/><use transform="matrix(0.05,0,0,0.05,10,0)" xlink:href="#aM"/><use transform="matrix(0.05,0,0,0.05,20,0)" xlink:href="#ai"/><use transform="matrix(0.05,0,0,0.05,30,0)" xlink:href="#aL"/><use transform="matrix(0.05,0,0,0.05,35,0)" xlink:href="#ah"/><use transform="matrix(0.05,0,0,0.05,45,0)" xlink:href="#aP"/><use transform="matrix(0.05,0,0,0.05,55,0)" xlink:href="#aL"/><use transform="matrix(0.05,0,0,0.05,60,0)" xlink:href="#ag"/><use transform="matrix(0.05,0,0,0.05,70,0)" xlink:href="#aL"/><use transform="matrix(0.05,0,0,0.05,75,0)" xlink:href="#ah"/><use transform="matrix(0.05,0,0,0.05,85,0)" xlink:href="#aM"/></g><g id="B"><use transform="matrix(0.05,0,0,0.05,0,0)" xlink:href="#R"/><use transform="matrix(0.05,0,0,0.05,12.950000000000001,0)" xlink:href="#D"/><use transform="matrix(0.05,0,0,0.05,22.950000000000003,0)" xlink:href="#H"/><use transform="matrix(0.05,0,0,0.05,27.950000000000003,0)" xlink:href="#aN"/></g></defs></g></svg>